<?xml version="1.0" encoding="utf-8"?>
<!-- Generator: Adobe Illustrator 22.0.0, SVG Export Plug-In . SVG Version: 6.00 Build 0)  -->
<svg version="1.1" id="Layer_1" xmlns="http://www.w3.org/2000/svg" xmlns:xlink="http://www.w3.org/1999/xlink" x="0px" y="0px"
	 viewBox="0 0 512 512" style="enable-background:new 0 0 512 512;" xml:space="preserve">
<style type="text/css">
	.st0{fill:#62808C;}
	.st1{fill:#39A024;}
	.st2{fill:#77959E;}
	.st3{fill:#FFFFFF;stroke:#ADDB31;stroke-miterlimit:10;}
</style>
<path class="st0" d="M320,80h-32V32h-64v48h-32V0h128V80z"/>
<path class="st1" d="M368,512H144c-26.5,0-48-21.5-48-48V128h320v336C416,490.5,394.5,512,368,512z"/>
<path class="st2" d="M448,160H64V96c0-17.7,14.3-32,32-32h320c17.7,0,32,14.3,32,32V160z"/>
<path class="st3" d="M224.5,407.4L159,341.9l38.3-38.3l27.2,27.2l90.2-90.2l38.3,38.3L224.5,407.4z"/>
</svg>
