<svg viewBox="1 -70 511.999 511" xmlns="http://www.w3.org/2000/svg"><path d="m388.703125 27.945312h-25.632813c-3.167968 0-5.738281 2.566407-5.738281 5.734376v23.910156h37.105469v-23.910156c0-3.167969-2.566406-5.734376-5.734375-5.734376zm0 0" fill="#f9ce19"/><path d="m383.070312 27.945312h-20c-3.167968 0-5.738281 2.566407-5.738281 5.734376v23.910156h20.003907v-23.910156c0-3.167969 2.566406-5.734376 5.734374-5.734376zm0 0" fill="#f7b81c"/><path d="m316.117188 55.589844v207.003906h172.851562v-64.996094c0-11.570312-6.082031-22.289062-16.015625-28.230468l-7.613281-4.554688c-6.140625-3.671875-10.625-9.574219-12.511719-16.476562l-21.554687-78.78125c-2.257813-8.246094-9.75-13.964844-18.296876-13.964844zm0 0" fill="#ededed"/><path d="m316.117188 55.589844h21v207.003906h-21zm0 0" fill="#e0e0de"/><path d="m356.664062 102.214844v49.796875c0 3.910156 3.167969 7.082031 7.078126 7.082031h94.839843c-2.664062-3.09375-4.660156-6.75-5.753906-10.757812l-14.554687-53.199219h-74.53125c-3.910157 0-7.078126 3.167969-7.078126 7.078125zm0 0" fill="#b3dbf4"/><path d="m376.664062 152.011719v-49.796875c0-3.910156 3.167969-7.078125 7.078126-7.078125h-20c-3.910157 0-7.078126 3.167969-7.078126 7.078125v49.796875c0 3.910156 3.167969 7.082031 7.078126 7.082031h20c-3.910157-.003906-7.078126-3.171875-7.078126-7.082031zm0 0" fill="#8fc8e2"/><path d="m138.921875 7.988281c-3.878906 0-7.652344 1.269531-10.75 3.609375l-105.511719 79.839844c-3.035156 2.292969-4.816406 5.878906-4.816406 9.683594v161.472656h299.273438v-254.605469zm0 0" fill="#1d9942"/><path d="m42.609375 91.4375 105.511719-79.839844c3.097656-2.339844 6.871094-3.609375 10.753906-3.609375h-19.949219c-3.882812 0-7.65625 1.269531-10.753906 3.609375l-105.511719 79.839844c-3.035156 2.292969-4.816406 5.878906-4.816406 9.683594v161.472656h19.949219v-161.472656c0-3.804688 1.785156-7.390625 4.816406-9.683594zm0 0" fill="#158732"/><path d="m12.351562 262.59375c-3.167968 0-5.734374 2.566406-5.734374 5.734375v25.632813c0 3.167968 2.566406 5.734374 5.734374 5.734374h304.765626v-37.101562c-10.953126 0-290.738282 0-304.765626 0zm0 0" fill="#d3d3cf"/><path d="m6.617188 274.074219v19.886719c0 3.167968 2.566406 5.734374 5.734374 5.734374h304.765626v-19.886718c-13.191407 0-291.355469 0-304.765626 0-3.167968.003906-5.734374-2.566406-5.734374-5.734375zm0 0" fill="#c6c6c4"/><path d="m497.878906 262.59375c-8.9375 0-172.0625 0-180.761718 0v37.101562h180.761718c3.167969 0 5.734375-2.566406 5.734375-5.734374v-25.632813c0-3.167969-2.566406-5.734375-5.734375-5.734375zm0 0" fill="#e0e0de"/><path d="m497.878906 279.945312c-18.429687 0-159.742187 0-180.761718 0v19.75h180.761718c3.167969 0 5.734375-2.566406 5.734375-5.734374v-19.75c0 3.167968-2.566406 5.734374-5.734375 5.734374zm0 0" fill="#d3d3cf"/><path d="m161.867188 313.304688c0 28.007812-22.707032 50.714843-50.714844 50.714843-28.007813 0-50.710938-22.707031-50.710938-50.714843 0-28.007813 22.703125-50.710938 50.710938-50.710938 28.007812 0 50.714844 22.703125 50.714844 50.710938zm0 0" fill="#2f6780"/><path d="m129.402344 313.304688c0 10.078124-8.171875 18.246093-18.25 18.246093s-18.246094-8.167969-18.246094-18.246093c0-10.078126 8.167969-18.246094 18.246094-18.246094s18.25 8.167968 18.25 18.246094zm0 0" fill="#e0e0de"/><path d="m80.441406 313.304688c0-24.582032 17.496094-45.078126 40.714844-49.722657-3.234375-.644531-6.578125-.988281-10.003906-.988281-28.007813 0-50.710938 22.703125-50.710938 50.710938 0 28.007812 22.703125 50.714843 50.710938 50.714843 3.425781 0 6.769531-.34375 10.003906-.992187-23.21875-4.644532-40.714844-25.136719-40.714844-49.722656zm0 0" fill="#1c5868"/><path d="m112.90625 313.304688c0-6.382813 3.285156-11.992188 8.25-15.253907-2.875-1.886719-6.308594-2.992187-10.003906-2.992187-10.078125 0-18.246094 8.167968-18.246094 18.246094 0 10.078124 8.167969 18.246093 18.246094 18.246093 3.695312 0 7.128906-1.105469 10.003906-2.992187-4.964844-3.261719-8.25-8.871094-8.25-15.253906zm0 0" fill="#d3d3cf"/><path d="m444.847656 313.304688c0 28.007812-22.707031 50.714843-50.714844 50.714843-28.007812 0-50.714843-22.707031-50.714843-50.714843 0-28.007813 22.707031-50.710938 50.714843-50.710938 28.007813 0 50.714844 22.703125 50.714844 50.710938zm0 0" fill="#2f6780"/><path d="m412.378906 313.304688c0 10.078124-8.167968 18.246093-18.246094 18.246093-10.078124 0-18.246093-8.167969-18.246093-18.246093 0-10.078126 8.167969-18.246094 18.246093-18.246094 10.078126 0 18.246094 8.167968 18.246094 18.246094zm0 0" fill="#e0e0de"/><path d="m363.421875 313.304688c0-24.582032 17.496094-45.078126 40.710937-49.722657-3.234374-.644531-6.574218-.988281-10-.988281-28.007812 0-50.714843 22.703125-50.714843 50.710938 0 28.007812 22.707031 50.714843 50.714843 50.714843 3.425782 0 6.765626-.34375 10-.992187-23.214843-4.644532-40.710937-25.136719-40.710937-49.722656zm0 0" fill="#1c5868"/><path d="m395.886719 313.304688c0-6.382813 3.28125-11.992188 8.246093-15.253907-2.871093-1.886719-6.304687-2.992187-10-2.992187-10.078124 0-18.246093 8.167968-18.246093 18.246094 0 10.078124 8.167969 18.246093 18.246093 18.246093 3.695313 0 7.128907-1.105469 10-2.992187-4.960937-3.261719-8.246093-8.871094-8.246093-15.253906zm0 0" fill="#d3d3cf"/><path d="m368.042969 183.578125c-4.140625 0-7.5 3.359375-7.5 7.5 0 4.144531 3.359375 7.5 7.5 7.5h12.449219c4.144531 0 7.5-3.355469 7.5-7.5 0-4.140625-3.355469-7.5-7.5-7.5zm0 0"/><path d="m395.019531 287.566406c-14.199219 0-25.75 11.550782-25.75 25.75 0 14.195313 11.550781 25.746094 25.75 25.746094 14.195313 0 25.746094-11.550781 25.746094-25.746094 0-14.199218-11.550781-25.75-25.746094-25.75zm0 36.496094c-5.929687 0-10.75-4.820312-10.75-10.746094 0-5.925781 4.820313-10.746094 10.75-10.746094 5.925781 0 10.746094 4.820313 10.746094 10.746094 0 5.925782-4.820313 10.746094-10.746094 10.746094zm0 0"/><path d="m112.039062 287.566406c-14.195312 0-25.746093 11.550782-25.746093 25.75 0 14.195313 11.550781 25.746094 25.746093 25.746094 14.195313 0 25.746094-11.550781 25.746094-25.746094 0-14.199218-11.546875-25.75-25.746094-25.75zm0 36.496094c-5.925781 0-10.746093-4.820312-10.746093-10.746094 0-5.925781 4.820312-10.746094 10.746093-10.746094 5.925782 0 10.746094 4.820313 10.746094 10.746094 0 5.925782-4.820312 10.746094-10.746094 10.746094zm0 0"/><path d="m13.238281 307.207031h40.910157c-.210938 2.007813-.324219 4.046875-.324219 6.109375 0 32.097656 26.117187 58.210938 58.214843 58.210938 32.097657 0 58.214844-26.113282 58.214844-58.210938 0-2.0625-.113281-4.101562-.324218-6.109375h39.277343c4.140625 0 7.5-3.359375 7.5-7.5 0-4.144531-3.359375-7.5-7.5-7.5h-42.917969c-3.175781-8.144531-8.425781-15.910156-15.289062-22.105469h159.5v22.105469h-66.292969c-4.140625 0-7.5 3.355469-7.5 7.5 0 4.140625 3.359375 7.5 7.5 7.5h92.917969c-3.609375 34.507813 23.53125 64.320313 57.894531 64.320313 32.097657 0 58.210938-26.113282 58.210938-58.210938 0-2.0625-.109375-4.101562-.320313-6.109375h45.851563c7.300781 0 13.238281-5.9375 13.238281-13.238281v-25.628906c0-7.296875-5.9375-13.238282-13.238281-13.238282h-1.40625v-18.9375c0-4.140624-3.359375-7.5-7.5-7.5-4.144531 0-7.503907 3.359376-7.503907 7.5v18.9375c-6.953124 0-150.097656 0-156.847656 0v-192h88.355469c5.15625 0 9.707031 3.472657 11.066406 8.441407l4.402344 16.101562h-64.699219c-8.039062 0-14.582031 6.542969-14.582031 14.582031v49.796876c0 8.039062 6.542969 14.578124 14.582031 14.578124h91.605469c3.480469 3.292969 5.613281 4.34375 13.757813 9.214844 7.625 4.558594 12.363281 12.910156 12.363281 21.792969v3.554687c0 4.140626 3.355469 7.5 7.5 7.5 4.140625 0 7.5-3.359374 7.5-7.5v-3.554687c0-14.128906-7.535157-27.414063-19.664063-34.667969-7.539062-4.507812-14.222656-7.359375-16.742187-16.574218-4.871094-17.796876-16.523438-60.386719-21.554688-78.78125-3.140625-11.472657-13.640625-19.484376-25.53125-19.484376h-11.039062v-14.410156c0-7.296875-5.9375-13.234375-13.238281-13.234375h-25.628907c-7.300781 0-13.238281 5.9375-13.238281 13.238281v14.40625h-25.214844v-32.601562h14.714844c4.144531 0 7.5-3.359375 7.5-7.5s-3.355469-7.5-7.5-7.5c-8.652344 0-192.210938 0-200.410156 0-5.476563 0-10.902344 1.820312-15.273438 5.125l-105.515625 79.839844c-4.878906 3.691406-7.789062 9.546875-7.789062 15.664062v154.140625c-6.347657.972657-11.230469 6.453125-11.230469 13.070313v25.628906c0 7.300781 5.9375 13.238281 13.238281 13.238281zm351.808594-155.605469v-48.957031h68.386719c13.878906 50.726563 13.109375 47.976563 13.421875 48.957031zm.671875-116.144531h22.105469v12.640625h-22.105469zm-307.929688 256.75h-42.789062v-22.105469h58.078125c-6.886719 6.21875-12.125 13.984376-15.289063 22.105469zm54.25 64.320313c-23.828124 0-43.214843-19.382813-43.214843-43.210938 0-23.957031 19.585937-43.214844 43.214843-43.214844 23.449219 0 43.210938 19.066407 43.210938 43.214844 0 23.828125-19.382812 43.210938-43.210938 43.210938zm282.980469 0c-23.828125 0-43.214843-19.382813-43.214843-43.210938 0-24.261718 19.867187-43.214844 43.214843-43.214844 23.632813 0 43.210938 19.253907 43.210938 43.214844 0 23.828125-19.386719 43.210938-43.210938 43.210938zm101.980469-86.425782v22.105469h-47.730469c-3.175781-8.140625-8.429687-15.910156-15.292969-22.105469zm-140.941406 0c-6.964844 6.289063-12.171875 14.105469-15.289063 22.105469h-15.265625v-22.105469zm-329.828125-168.972656c0-1.445312.6875-2.828125 1.839843-3.703125l105.515626-79.835937c1.777343-1.347656 3.988281-2.089844 6.222656-2.089844h170.695312v239.601562c-24.128906 0-274.429687 0-284.273437 0zm0 0"/><path d="m89.03125 92.039062c-4.144531 0-7.5 3.359376-7.5 7.5v119.125c0 4.140626 3.355469 7.5 7.5 7.5 4.140625 0 7.5-3.359374 7.5-7.5v-119.125c0-4.140624-3.359375-7.5-7.5-7.5zm0 0"/><path d="m134.921875 226.164062c4.144531 0 7.5-3.359374 7.5-7.5v-144.023437c0-4.140625-3.355469-7.5-7.5-7.5-4.140625 0-7.5 3.359375-7.5 7.5v144.023437c0 4.140626 3.359375 7.5 7.5 7.5zm0 0"/><path d="m180.816406 226.164062c4.144532 0 7.5-3.359374 7.5-7.5v-144.023437c0-4.140625-3.355468-7.5-7.5-7.5-4.144531 0-7.5 3.359375-7.5 7.5v144.023437c0 4.140626 3.355469 7.5 7.5 7.5zm0 0"/><path d="m226.707031 226.164062c4.144531 0 7.5-3.359374 7.5-7.5v-144.023437c0-4.140625-3.355469-7.5-7.5-7.5s-7.5 3.359375-7.5 7.5v144.023437c0 4.140626 3.359375 7.5 7.5 7.5zm0 0"/><path d="m272.597656 226.164062c4.144532 0 7.503906-3.359374 7.503906-7.5v-144.023437c0-4.140625-3.359374-7.5-7.503906-7.5-4.140625 0-7.5 3.359375-7.5 7.5v144.023437c0 4.140626 3.359375 7.5 7.5 7.5zm0 0"/></svg>